<svg width="56" height="64" viewBox="0 0 56 64" fill="none" xmlns="http://www.w3.org/2000/svg">
<g clip-path="url(#clip0_295_21)">
<path d="M8.65596 27.9513C6.78922 28.8294 1.84844 32.7822 0.896834 33.9534C-0.09143 35.1246 -0.384136 33.2947 0.640604 30.257C1.44559 27.8048 3.49543 24.4742 6.93567 21.6195C8.94849 19.9725 13.3772 17.5937 16.0854 16.2028C16.6345 15.9099 23.7347 12.9088 30.0664 11.4082C30.6156 11.2618 29.4077 12.3232 29.2246 12.9088C28.273 15.6903 9.27785 27.6217 9.27785 27.6217L8.65596 27.9513Z" fill="black"/>
<path d="M35.4108 61.5134C35.7402 63.4897 35.4475 63.6361 33.398 63.8924C31.3483 64.1486 29.8478 63.3799 29.2989 62.8676C28.7498 62.355 28.6401 61.2206 29.1891 60.1959C29.5186 59.537 29.848 59.3174 30.0311 58.5123C30.214 57.7438 30.3604 57.5607 30.5067 57.2679C30.653 57.0115 30.6898 56.7553 30.7263 54.9621C30.7629 53.1688 30.7263 49.8015 30.9094 48.3743C31.0925 46.9104 37.4242 49.033 37.4242 49.033C37.4242 49.033 35.9235 52.7661 35.521 53.6811C35.1183 54.5962 35.155 56.3528 35.155 56.7188C35.155 57.0848 35.0087 57.8167 34.8987 57.8534C34.7889 57.8898 35.2648 58.8414 35.045 59.3906C34.8986 59.903 35.3744 61.2206 35.4108 61.5134Z" fill="black"/>
<path d="M37.8237 5.55421C37.6039 4.16345 37.8237 1.41823 38.1164 0.979263C39.0315 -0.265231 43.8625 -0.411494 44.8874 1.05239C45.3266 1.71112 45.2899 3.24832 45.2168 4.23658C45.1436 5.22467 44.8874 7.34746 44.8508 8.04301C44.8143 8.55547 39.5073 9.36046 38.3361 7.9697C38.0066 7.60387 37.8237 5.55421 37.8237 5.55421Z" fill="black"/>
<path d="M48.5833 57.9627C50.8159 59.5732 52.536 59.8659 53.6705 60.4515C54.805 61.0372 54.5123 62.1718 52.6091 62.5011C51.0719 62.7938 48.6564 62.2082 47.0461 62.2082C45.4358 62.2082 41.8489 62.3913 40.8973 61.7326C39.7994 60.9641 40.2751 59.5365 40.2751 59.5365C40.5679 58.7315 41.2998 56.9379 41.0802 55.474C40.8606 54.0101 40.5678 53.205 40.0188 51.8507C39.4699 50.4966 39.0674 47.1661 39.5799 46.983C40.0923 46.7999 39.9457 46.983 40.6046 47.1293C41.2633 47.2756 41.9954 47.4953 43.4228 47.4953C44.8502 47.4953 46.4239 47.2756 46.973 47.166C47.5219 47.0562 47.9611 46.9462 47.778 48.0809C47.595 49.2154 47.0461 51.3382 47.0094 52.9852C46.973 54.6322 46.973 56.5354 47.0828 56.8648C47.1924 57.1941 47.9977 57.5602 48.5833 57.9627Z" fill="black"/>
<path d="M40.7538 9.21127C36.728 12.6883 28.9322 13.6398 17.367 18.1049C14.4024 19.2395 6.49697 22.6432 4.59375 26.1934C10.9986 22.497 13.3776 27.5842 13.8899 32.8178C14.3655 37.7221 16.8179 40.2843 23.1129 40.1376C29.5911 39.9914 31.5674 43.761 33.3607 48.1897C36.8376 31.244 42.4008 27.9502 45.9873 25.0589C53.6001 18.8734 44.2307 7.96678 40.7538 9.21127Z" fill="#88CE02"/>
<path d="M40.7551 9.21094C31.093 12.578 21.5404 13.4199 10.3046 20.3372C7.63283 21.9842 1.99649 25.7171 0.898438 32.8542C4.9974 28.3157 14.4766 22.6064 26.0787 18.9831C31.9346 17.153 36.2168 15.9453 41.4138 13.9323C41.048 11.5898 41.048 10.6748 40.7551 9.21094Z" fill="#88CE02"/>
<path d="M53.0882 29.27C53.0882 29.27 52.3929 31.649 51.0021 32.4177C51.0021 32.4177 49.9774 32.7837 47.9279 31.6492C47.3423 31.3198 46.9031 30.1853 46.9396 29.8191C46.9763 28.9406 47.5252 28.5381 47.5252 28.5381C47.5252 28.5381 48.111 27.5498 48.8062 27.5865C49.5017 27.623 50.6729 27.7328 51.0389 27.4034C51.3681 27.0374 53.1615 28.0621 53.0882 29.27Z" fill="black"/>
<path d="M38.1549 6.24763C38.1549 6.24763 38.0086 8.11437 37.7524 9.28537C37.7157 9.50512 36.6178 9.61473 35.8125 9.94427C37.3497 14.3361 46.6094 14.2995 47.8172 12.1402C47.2316 11.7377 46.0604 11.1155 45.5115 10.8959C44.9624 10.6761 44.999 10.7128 44.9624 9.68804C44.9259 8.66312 44.8526 6.76009 44.7793 6.24763C44.7062 5.73517 39.0332 5.73517 38.1549 6.24763Z" fill="black"/>
<path d="M38.5224 6.24962C38.5224 6.24962 38.5224 7.31102 38.4127 8.33576C38.3762 8.81156 38.3395 9.10427 38.2664 9.47029C38.2297 9.69004 39.5107 10.5682 39.8767 12.508C41.6335 16.4241 45.6962 14.4844 47.3796 12.6178C46.794 12.2151 45.8424 11.6662 44.7446 11.2271C44.1954 11.0073 44.4517 10.5317 44.4152 9.50694C44.3785 8.4822 44.2321 6.98148 44.159 6.43254C44.0855 5.88361 39.4009 5.73716 38.5224 6.24962Z" fill="#EFEFEF"/>
<path d="M38.1541 6.24763C38.1541 6.24763 38.1174 6.90653 38.0078 7.67504C38.4834 8.15066 39.1057 8.80957 39.5817 9.21224C39.911 9.50512 40.716 9.46847 41.4482 9.46847C42.107 9.46847 42.6925 9.5416 42.9488 9.39534C43.5345 9.10245 44.3762 8.3706 44.852 7.82148C44.8155 7.16276 44.7789 6.54051 44.7424 6.24763C44.7054 5.73517 39.0324 5.73517 38.1541 6.24763Z" fill="black"/>
<path d="M41.4874 9.03156C41.0481 9.03156 40.5356 8.99509 40.1331 8.92178C39.95 8.8853 39.7671 8.77551 39.6207 8.7022C39.3645 8.5191 39.1082 8.29971 38.8157 8.07996C38.2299 7.64081 38.1935 7.38458 38.1935 7.27497C38.4497 4.96908 38.1201 3.02939 38.1201 3.02939C38.1201 3.02939 37.8639 2.04112 39.2547 1.78489C40.6454 1.52866 41.4872 1.49219 41.4872 1.49219C41.4872 1.49219 42.3657 1.49219 43.7198 1.78489C45.1106 2.04112 44.8543 3.02939 44.8543 3.02939C44.8543 3.02939 44.525 4.96908 44.7812 7.27497C44.7812 7.38458 44.7447 7.64081 44.159 8.07996C43.6465 8.44597 43.244 8.84847 42.8415 8.92178C42.4389 8.99509 41.9264 9.03156 41.4874 9.03156Z" fill="black"/>
<path d="M41.4883 0.539062C39.0728 0.539062 38.5968 1.19779 37.9015 1.92982C37.7552 2.11274 37.8648 3.21079 38.1212 5.55316H38.4506C38.4506 5.55316 38.2308 4.89425 38.2675 4.12574C38.3041 3.35723 38.4506 3.39389 38.3406 3.21079C38.1943 2.99104 37.9015 2.62502 38.5604 2.25918C39.2191 1.89316 40.2438 2.55189 41.4883 2.58854C42.7326 2.55189 43.794 1.89316 44.4527 2.25918C45.1115 2.62502 44.8188 2.99104 44.6725 3.21079C44.5261 3.43036 44.709 3.35705 44.7456 4.12574C44.7821 4.89425 44.5625 5.55316 44.5625 5.55316H44.8919C45.1115 3.21079 45.2579 2.18605 45.1481 2.00295C44.5259 1.19779 43.9038 0.575538 41.4883 0.539062Z" fill="black"/>
<path d="M53.0909 29.3804C53.0909 29.3804 52.3956 31.613 51.0415 32.3815C50.7486 32.2352 50.7852 32.0157 50.529 31.6861C50.4557 31.5765 50.1995 31.503 50.0899 31.3934C49.9801 31.2836 50.0167 31.1005 49.8336 30.9543C49.6872 30.8078 49.5774 30.9176 49.431 30.8078C49.2847 30.6616 49.2479 30.4785 49.1382 30.3689C49.0649 30.2955 48.7722 30.2591 48.6991 30.1858C48.516 30.0027 46.9058 29.6733 46.979 29.3073C47.1252 28.7582 47.4181 28.3557 47.4181 28.3557C47.4181 28.3557 48.1135 27.3309 48.8087 27.3674C49.5041 27.4041 50.163 27.5505 50.529 27.2211C50.9317 26.8549 53.2009 28.2092 53.0909 29.3804Z" fill="black"/>
<path d="M48.3281 13.2035C48.3281 13.2035 50.6338 12.6544 52.2077 14.1551C53.7815 15.6923 53.6715 17.5954 53.1959 18.7665C53.5984 19.2424 54.3304 20.5598 53.7815 22.1337C56.197 24.1831 55.1356 27.3308 52.9763 29.417C52.9763 29.417 52.4639 27.5138 50.4144 27.404C50.4875 26.6721 48.5112 26.0863 49.4261 24.1831C48.0354 23.8538 48.072 22.9022 47.8525 21.7312C47.6694 20.5598 48.3281 13.2035 48.3281 13.2035Z" fill="black"/>
<path d="M47.4859 14.2268C47.4859 14.2268 50.1577 12.8727 51.7315 14.4099C53.3052 15.9471 52.8659 17.6306 52.3902 18.8018C52.7927 19.2774 53.7443 20.6318 53.1587 22.242C53.049 22.608 52.2438 22.608 51.658 23.5596C53.1219 22.7176 54.037 22.9374 54.3664 23.9986C54.8789 25.6456 53.7442 27.6219 52.7561 28.72C52.7561 28.6833 52.7194 28.6467 52.7194 28.6102C52.5732 29.1593 52.3901 30.2205 51.2922 31.3917C50.7431 31.9773 50.3039 31.9042 49.6817 31.7577C48.9498 31.5746 48.6936 31.2451 47.6688 30.6963C47.0833 30.367 47.4126 29.9643 47.4126 29.6349C47.4126 29.5618 47.4857 29.4518 47.5957 29.3056C47.6688 29.1225 47.8884 28.8299 48.2178 28.5004C48.2178 28.5004 48.6936 27.8417 49.3891 27.8782C50.0845 27.9148 50.8164 27.7685 50.9995 27.5854C50.9995 26.3045 49.5356 26.2678 50.0479 24.0719C50.0845 23.9621 50.2676 23.779 50.853 23.7059C49.9746 23.5228 49.5721 23.4861 48.9498 22.9007C48.5107 22.4982 48.1813 21.9858 48.0713 21.327C47.8519 20.1925 47.4859 14.2268 47.4859 14.2268Z" fill="#EFEFEF"/>
<path d="M39.7649 11.9198C39.5453 11.6269 38.4108 10.163 36.2513 9.57741C35.6291 9.39431 35.2266 9.90677 34.6045 10.2728C34.4214 10.163 33.6162 9.79698 33.1771 10.053C32.7379 10.3091 32.4452 10.5655 32.0059 10.7484C31.7862 10.6386 31.2007 10.6386 30.7249 10.8215C30.2491 10.968 29.5171 11.2973 28.8217 12.249C28.3826 13.8228 36.5807 12.6514 36.5807 12.6514L39.7649 11.9198Z" fill="black"/>
<path d="M39.8429 11.9201C38.6715 11.5174 38.8546 10.1633 36.256 9.94375C35.7436 9.90709 35.4142 10.3096 35.0482 10.5658C35.2313 10.7489 35.4142 11.0416 35.524 11.3343C35.1946 10.9685 34.609 10.4925 34.0233 10.3827C33.4743 10.2731 33.1083 10.6756 32.5227 10.9685C32.6323 11.0781 32.7423 11.2612 32.8885 11.4809C32.3761 11.1516 32.0103 11.0418 31.3149 11.2978C30.8391 11.4441 29.9241 11.8468 29.2287 12.835C28.7896 14.4089 36.6219 12.6519 36.6219 12.6519L39.8429 11.9201Z" fill="#88CE02"/>
<path d="M46.7228 12.5057C46.7228 12.5057 46.7228 12.103 46.6861 11.7372C46.6861 11.664 46.3934 11.4809 46.3934 11.4078L46.3203 11.3345C46.3203 11.3345 46.9059 11.0051 47.3451 11.1882C47.8207 11.3345 48.0769 11.9567 48.0769 11.9567C48.9187 11.664 48.9919 11.9934 49.3945 12.4325C50.273 12.2494 50.3826 12.5788 50.9317 13.3841C50.9317 13.3841 50.273 13.2744 48.992 13.4937C47.7475 13.6767 46.7228 12.469 46.7228 12.5057Z" fill="black"/>
<path d="M46.5711 12.3242C46.5711 12.3242 46.7907 12.1411 46.7174 12.1045C47.1199 11.8849 47.669 11.6288 47.9252 12.3242C48.767 12.0313 48.8768 12.434 49.2793 12.8733C50.3041 12.3975 50.3772 12.9829 50.4505 13.2392C50.1212 13.2392 49.6455 13.2758 48.9866 13.349C47.7423 13.5321 46.5345 12.2876 46.5711 12.3242Z" fill="#88CE02"/>
<path d="M34.1303 11.4102C34.1303 11.4102 36.2164 12.142 37.9732 12.0322C39.73 11.886 42.731 11.7395 44.3414 12.6911C44.3414 12.6911 45.9884 12.1054 47.5256 12.508C49.0629 12.9105 51.8809 15.5458 51.0393 18.3273C50.966 18.5104 50.4902 18.8031 49.9412 18.9862C49.9412 18.9862 50.2341 20.2305 49.7217 21.2552C49.2092 22.2435 48.0747 24.1467 48.038 26.7818C48.0015 27.2209 47.9284 28.1359 47.8551 28.575C45.0003 28.4654 40.6084 27.4039 36.2897 27.4772C36.3262 27.0016 36.3629 26.7087 36.3995 26.2329H36.5091C36.2895 25.025 36.2164 24.4028 35.9967 23.4878C34.6059 22.6095 33.1418 21.5848 31.8977 19.6449C30.6899 17.705 34.1303 11.4102 34.1303 11.4102Z" fill="black"/>
<path d="M48.2577 31.1719C48.2577 31.1719 50.5269 39.297 47.8552 42.7008C47.8552 42.7008 48.2577 44.2745 47.3427 45.9581C47.1963 46.69 47.0132 47.3489 46.9036 48.0807C46.4278 51.1185 45.6224 52.3994 45.4028 57.2671L43.2067 57.2306C43.2067 57.2306 42.9505 53.7171 42.182 51.8505C41.743 50.7893 40.0225 49.3617 40.096 47.9345C40.1692 46.8364 40.3887 45.9214 42.2555 44.4574C42.4017 42.3348 40.279 40.3216 40.6085 32.4162L48.2577 31.1719Z" fill="black"/>
<path d="M47.5974 30.8438C48.183 34.5769 49.5371 40.1034 47.0849 42.8116C47.1946 43.3241 47.2679 44.0561 47.1214 44.8978C47.0483 45.3369 46.9018 45.8127 46.7189 46.325C46.3529 47.2035 46.2065 48.4844 46.0967 49.253C45.6209 52.2907 45.6209 52.4373 45.4013 57.305L43.2052 57.2683C43.2052 57.2683 42.949 53.7548 42.1805 51.8884C41.7415 50.827 40.8264 49.912 40.7532 48.4846C40.6801 47.3867 41.4486 45.1908 43.2787 45.264C43.1689 40.8355 41.1192 41.7138 40.5703 32.4907L47.5974 30.8438Z" fill="#EFEFEF"/>
<path d="M34.1301 11.4102C34.1301 11.4102 34.9352 11.6664 35.8135 11.7395C36.692 11.8126 37.6436 11.7395 38.4853 11.7029C40.242 11.5566 42.7309 11.3735 44.3778 12.3251C44.3778 12.3251 45.2928 12.0322 46.2811 12.1054C46.7202 12.142 47.1595 12.508 47.6718 12.6545C49.2821 13.057 50.8193 15.7287 50.1238 18.1444C50.0507 18.3275 49.5382 18.1444 48.9526 18.3275C49.0622 18.8399 49.1357 20.0111 48.5499 21.2554C47.9279 22.4999 47.1227 24.1102 47.269 27.1846C43.426 27.0015 41.7059 26.7455 37.8995 26.5624C37.5701 25.2081 37.3504 23.854 37.3139 23.1586C37.8264 22.9024 38.1189 22.683 38.5217 22.2437C37.4239 22.4268 36.9845 22.3535 36.3256 21.9875C35.6669 21.6214 34.4957 20.4503 33.9101 19.6817C33.837 19.6084 33.4345 20.8161 32.5196 20.8529C32.19 20.3771 33.5808 19.0228 33.3246 18.5106C32.4098 16.6438 34.1301 11.4102 34.1301 11.4102Z" fill="#EFEFEF"/>
<path d="M47.8936 27.8038C47.8936 27.8038 47.9667 29.1214 47.9667 29.4508C47.9667 29.8168 48.2596 30.9147 48.2961 31.4271C47.8936 32.1225 46.1368 33.6964 42.9526 34.282C39.8051 34.9407 35.6328 29.9999 35.6328 29.9999C35.7426 29.5241 36.1086 28.1332 36.3648 27.4013C36.4015 27.3282 36.4746 27.1451 36.4746 27.072C36.8042 26.5961 47.8936 27.8038 47.8936 27.8038Z" fill="black"/>
<path d="M47.0865 27.9139C47.0865 28.8289 47.2327 29.4878 47.3427 30.0734C47.5256 31.1348 47.8183 31.8302 47.8183 32.5255C47.8183 34.6481 45.0368 34.2821 42.6943 34.3554C39.5467 35.0143 36.875 30.0734 36.875 30.0734C37.0946 29.2316 37.241 28.2801 37.5704 27.4748C37.6069 27.0356 37.6802 26.4867 37.7166 26.2305C42.1818 26.2305 45.3293 26.4867 47.1594 26.6694C47.2327 27.0721 47.1596 27.7675 47.0865 27.9139Z" fill="#EFEFEF"/>
<path d="M43.5713 32.6384C43.5713 32.6384 41.6316 28.3197 35.8121 29.6008C34.4216 33.5169 32.5548 38.0187 33.7627 42.8863C32.5548 44.5333 31.1641 45.4484 31.1641 48.486C31.1641 51.5237 31.3105 52.0362 31.3105 52.0362L35.5926 52.256C35.5926 52.256 36.9833 50.4627 37.5323 48.5228C37.6787 47.9737 37.8251 46.9856 37.7154 45.8511C37.8616 45.6315 38.4839 45.1193 38.5572 44.131C38.5572 44.131 40.6433 43.0331 41.8511 40.3614C42.9859 37.9454 42.693 35.8592 43.5713 32.6384Z" fill="black"/>
<path d="M43.5726 32.6385C43.463 32.236 41.9989 28.2833 36.5821 29.4543C33.3981 37.9455 34.5693 41.459 35.0449 42.996C32.8855 45.7409 31.8974 46.3265 32.3367 51.8897H35.1916C36.509 49.8036 36.8019 49.0349 36.875 46.29C36.875 46.1802 36.4725 46.5096 36.1796 46.8756C36.3994 45.7411 37.0215 45.5215 37.4973 44.8261C37.7168 44.5332 37.8998 44.0941 37.8998 43.5085C40.4617 41.7884 41.4133 39.6289 41.9623 37.3963C42.4016 35.8593 42.9139 33.3339 43.5726 32.6385Z" fill="#EFEFEF"/>
<path d="M34.5369 26.7461C34.5369 26.7461 35.5252 26.7826 36.4036 27.0755C37.2455 27.3682 37.2455 27.5511 37.5748 27.9173C37.9042 28.2835 38.7094 28.8322 38.5631 29.3812C38.4898 29.674 38.3069 29.7472 38.0506 30.0034C37.9408 30.1132 37.1355 30.9915 36.9526 31.1013C36.8428 31.1744 36.6963 31.2844 36.5866 31.3575C36.477 31.4306 36.1476 31.6504 36.0376 31.7235C35.6716 31.9066 35.4154 32.0164 35.0129 31.9798C35.0129 31.9798 34.0979 31.9431 33.5122 31.321C33.5122 31.321 33.439 31.0281 33.5855 30.8819C33.5855 30.8819 32.8168 30.223 32.5972 29.7838C32.3775 29.3449 32.3775 28.7226 32.5241 28.3933C32.5972 28.0635 34.0244 27.1486 34.5369 26.7461Z" fill="black"/>
<path d="M35.4515 62.3549L35.3418 63.2701C35.3418 63.2701 35.0124 63.6726 32.5602 63.6361C30.0714 63.5994 29.4127 62.8309 29.1931 62.4282L29.0469 61.4766C29.0469 61.4766 29.5227 60.7812 29.6325 60.7812C30.4376 60.8544 33.1827 61.9524 35.0859 62.2451C35.2684 62.2451 35.3049 62.3183 35.4515 62.3549Z" fill="black"/>
<path d="M40.7554 60.4874C40.7554 60.8899 40.7188 60.8899 40.7188 61.2925C41.1579 61.6219 42.2561 61.805 44.3421 61.7682C47.3798 61.695 50.198 62.6833 53.6382 62.0975L53.6749 61.4388L53.3455 61.4023L41.1579 60.4141L40.7554 60.4874Z" fill="black"/>
<path d="M43.425 61.7688C43.7179 61.7688 44.0106 61.7688 44.3399 61.7688C46.3165 61.6956 48.183 62.1348 50.1958 62.2446C51.2572 62.2079 52.5749 61.9517 52.4651 61.1832L42.0709 60.3047C41.4486 61.0001 41.9243 61.5857 43.425 61.7688Z" fill="black"/>
<path d="M31.4982 46.3633C31.8276 46.5829 34.0602 47.9005 37.6835 47.7174C37.6102 48.4128 37.6469 49.767 36.0365 52.1459C35.2314 53.3171 34.5358 55.3667 34.3895 57.9653C34.4262 58.5509 34.7556 59.0632 34.3164 59.8319C34.4627 60.3075 35.0483 61.2591 35.3412 61.8447C35.6339 62.4305 35.7803 63.0892 33.8404 63.1259C31.8641 63.1623 28.6799 62.9428 29.1192 61.4057C29.339 60.6006 29.961 59.7588 30.0344 59.4292C30.1075 59.0998 30.1075 58.1118 30.7296 57.4529C31.2787 55.623 31.0956 53.8662 30.986 52.2192C30.8029 50.4989 30.7662 47.754 31.4982 46.3633Z" fill="black"/>
<path d="M34.897 16.5332C37.4956 13.0561 35.2995 10.2748 31.1274 11.1164C29.4438 11.4458 27.7603 12.6172 27.6503 14.7398C27.1014 14.8129 25.8571 14.886 25.2348 17.1553C24.7592 18.912 24.503 19.2414 23.661 20.1197C23.112 20.7419 23.6976 22.0229 24.1001 22.938C25.4544 26.0856 29.6267 26.3783 32.4448 28.7573C33.3964 28.5011 34.3845 27.4399 34.6774 26.7445C32.2984 23.9261 32.8107 22.8283 31.8591 21.3644C32.884 20.9982 35.2264 19.5709 34.897 16.5332Z" fill="black"/>
<path d="M34.3881 16.3131C34.5343 16.0933 34.7906 15.6177 34.9005 15.4346C34.9372 15.398 35.3397 16.0933 35.3763 16.0569C36.3644 14.4464 36.6206 12.104 35.4859 11.8844C35.2297 11.8478 34.7541 11.7381 34.3514 11.5915C33.6196 11.3353 32.9608 11.3353 31.7895 11.555C30.1791 11.8478 28.5688 13.0189 28.5688 14.7026C28.5688 14.8124 29.7032 15.1417 30.0327 16.496C29.4836 15.7273 28.532 14.8855 27.3974 15.6175C26.1896 16.386 26.8119 18.1428 25.2015 19.9727C24.6524 20.595 24.7257 21.327 25.3111 22.7909C26.2627 25.0968 30.7646 26.3411 33.2167 28.537C33.8023 28.2808 34.2048 27.6952 34.4977 27.2561C32.8507 25.5359 32.1918 23.9254 31.7162 22.7542C31.1306 21.4001 30.4717 20.6316 29.1907 19.6065C29.8496 19.8628 30.3621 20.119 30.6546 20.3386C30.9839 20.5581 31.4598 20.5948 31.8991 20.4483C33.4731 19.8998 34.3149 17.7037 34.3881 16.3131Z" fill="#EFEFEF"/>
<path d="M50.31 16.8977C50.2002 18.2884 49.1755 17.593 48.6265 17.3368C47.5285 16.861 46.4304 16.5316 45.1494 16.5316C43.8685 16.5316 42.2215 16.6414 40.7943 17.0074C38.8179 17.5564 38.2321 17.5199 37.3538 17.0806C36.4755 16.6048 34.9385 15.4336 34.9385 15.4336C34.9385 15.4336 34.9019 15.7996 35.2679 16.2754C35.7435 16.861 36.8051 17.593 38.2323 18.0687C38.9277 18.2884 39.4768 18.1418 40.0991 17.9955C43.3564 17.1904 46.7966 17.0439 49.6879 18.8007C49.8344 18.8738 50.3468 18.6543 50.5664 18.3249C50.8589 17.8493 50.31 16.8977 50.31 16.8977Z" fill="black"/>
<path d="M33.6562 30.8438C33.949 31.0268 34.315 31.1366 34.7175 31.466C34.7175 31.466 34.3881 31.466 34.2418 31.3197C34.0587 31.2099 33.6927 30.8806 33.6562 30.8438Z" fill="#001423"/>
<path d="M44.2325 1.82138C44.1227 1.49202 43.3174 0.90625 41.451 0.90625C39.438 0.90625 38.8524 1.5285 38.8159 1.85786C38.8159 1.96765 38.6695 3.13901 38.6328 3.61463C38.6328 3.61463 38.6328 4.20022 38.6693 5.07852C38.7059 5.66411 38.8524 5.99347 38.9255 6.76216C38.9986 7.56715 39.2184 8.07961 39.6209 8.73851C39.804 8.84812 39.9503 8.95809 40.1334 8.99474C40.8654 9.141 42.1464 9.17766 42.8417 8.99474C43.2442 8.88495 43.7567 8.18958 43.8665 7.56733C44.0127 6.79882 44.1592 6.2497 44.1958 5.77408C44.269 5.29845 44.3056 4.23688 44.3421 3.94399C44.4521 3.13901 44.269 1.89451 44.2325 1.82138Z" fill="#EFEFEF"/>
<path d="M40.3885 47.0586C40.3885 47.0586 42.3283 47.9004 47.1229 47.1684C47.1229 47.1684 45.7688 53.9759 46.391 57.3795C46.391 57.3795 47.0131 58.258 51.6247 59.9414C51.6247 59.9414 53.6742 60.4539 53.601 61.4788C53.601 61.4788 53.6742 61.6984 51.1855 61.6251C48.6969 61.5518 46.3543 61.1126 44.7074 61.1126C43.0604 61.1126 41.3036 61.1857 41.0109 60.7101C40.6815 60.271 41.084 59.1363 41.5598 58.4774C42.0725 57.7822 41.9258 57.2695 41.8894 56.0254C41.7792 52.7681 39.2904 49.401 40.3885 47.0586Z" fill="black"/>
<path d="M39.9875 47.679C39.7313 48.045 40.024 49.4356 40.39 50.7899C40.756 52.144 41.5614 52.9493 41.7443 55.1817C41.9272 57.3776 41.9639 57.6705 41.3416 58.9513C40.7194 60.2321 40.5365 61.4035 42.6957 61.4401C44.855 61.4768 46.0264 61.4035 48.2223 61.733C50.4184 62.0624 51.1869 62.1722 52.3947 61.9892C53.6026 61.8063 53.8586 61.4035 53.3463 61.0376C52.8339 60.6716 50.7111 60.2691 49.7961 59.5369C48.9177 58.8782 46.429 57.7801 46.3926 57.4874C46.2828 56.4992 46.2461 52.9125 46.429 51.7413C46.6121 50.5699 46.8682 48.8865 46.9415 48.4473C47.0148 48.0082 47.3806 47.5688 46.7584 47.7153C46.1363 47.8616 43.794 48.1911 42.0372 48.0813C40.2804 47.9717 40.0975 47.569 39.9875 47.679Z" fill="#88CE02"/>
<path opacity="0.3" d="M41.2344 58.9883C41.8565 59.281 42.7716 59.5007 43.467 59.5007C43.467 59.5007 43.2106 60.7086 43.6133 61.4404C44.0158 62.1725 40.6853 61.7333 40.6853 61.7333L40.5391 59.1347L41.2344 58.9883Z" fill="black"/>
<path opacity="0.3" d="M50.9331 62.1354C51.5187 61.9523 51.9214 61.2936 51.4456 60.6715C50.9331 60.0493 50.494 59.9395 51.1527 59.903C51.8116 59.8664 54.2271 61.3303 54.2271 61.3303L52.9826 62.4648L50.9331 62.1354Z" fill="black"/>
<path opacity="0.3" d="M39.8778 49.1075C40.7196 49.4003 42.0006 49.4735 43.0987 49.4368C44.1965 49.4003 45.8435 49.2537 46.9051 48.8879C47.9663 48.5219 47.5272 49.2904 47.5272 49.2904L46.9416 49.8395C46.9416 49.8395 45.5508 50.3884 43.2818 50.352C40.61 50.3153 39.8047 50.0226 39.8047 50.0226L39.8778 49.1075Z" fill="black"/>
<path opacity="0.3" d="M39.9531 50.9367C40.7951 51.2296 42.0759 51.3028 43.174 51.2661C44.2718 51.2296 45.7359 51.2296 46.7973 50.827C47.2365 50.6807 46.9804 51.3028 46.9804 51.3028L46.7973 51.6321C46.7973 51.6321 45.3699 52.1446 43.1373 52.1078C40.4656 52.0713 39.9898 51.8515 39.9898 51.8515L39.9531 50.9367Z" fill="black"/>
<path d="M37.5312 25.2812C37.5312 25.5375 40.3861 26.9647 41.9598 27.2576C43.5336 27.5503 46.8276 27.2576 47.3399 27.1478L47.2665 27.6603C47.2665 27.6603 43.3505 28.2459 40.3494 27.4407C37.3482 26.6355 37.6777 26.4524 37.6777 26.4524L37.5312 25.2812Z" fill="black"/>
<path d="M31.4219 56.5011C31.861 56.7209 33.4349 57.1234 34.4596 56.9038C34.6059 56.8671 34.4596 54.3783 34.8623 53.2438C35.4479 51.6699 36.3995 50.389 36.8385 47.6076C35.3013 47.4612 33.5447 47.0585 32.6295 46.7656C31.4585 50.3525 31.8612 53.4267 31.4219 56.5011Z" fill="#EFEFEF"/>
<path d="M33.8765 58.8078C34.1328 58.8809 34.3157 59.1737 34.389 58.9909C34.5353 58.6614 34.1328 58.0393 34.0961 57.6002C34.0961 57.5635 34.0961 57.6002 34.0961 57.5635C33.7667 57.2708 31.5342 57.2341 31.6806 57.3804C31.4244 57.8562 31.0219 57.7831 30.8756 58.7347C30.8025 59.2103 31.3881 58.8078 31.9368 58.7712C30.9488 59.4299 29.8142 60.2719 29.6311 61.0037C29.4116 62.0285 29.7776 62.3214 30.8756 62.8705C31.8272 63.0901 32.9618 63.1267 33.8401 63.0901C34.8283 62.907 35.0114 62.4313 34.7185 61.7724C34.279 60.7842 33.9863 59.5032 33.8765 58.8078Z" fill="#EFEFEF"/>
<path d="M34.2764 11.2617C35.4842 11.9571 37.1679 11.7742 37.7899 11.7375C37.9364 11.7375 39.4005 11.4813 39.4736 11.5178C39.6198 11.5544 39.6198 11.6642 39.6198 11.6642C39.6198 11.6642 39.0709 11.9569 37.8266 12.03C36.6554 12.1032 35.2647 12.03 34.4961 11.6642C33.581 11.2617 34.2764 11.2617 34.2764 11.2617Z" fill="black"/>
<path d="M46.7226 11.9583C46.9421 12.1046 48.3696 12.6537 48.9918 13.3124C49.5407 13.8982 49.248 13.8615 49.1381 13.7151C48.9918 13.532 47.8571 12.7635 47.4179 12.5806C46.9788 12.3976 46.4297 12.0681 46.4297 11.995C46.4297 11.9218 46.7226 11.9583 46.7226 11.9583Z" fill="black"/>
<path d="M34.0922 27.1448C35.1535 27.0717 36.2516 27.3279 36.947 28.0598C37.313 28.4258 37.8986 28.8283 37.8255 29.1943C37.8255 29.3041 37.6057 29.597 37.423 29.8165C37.3132 29.9628 36.9838 30.2921 36.8738 30.4021C36.7276 30.5119 36.2151 30.9146 36.1053 30.9877C35.9956 31.061 35.8491 31.2441 35.7393 31.2806C35.3735 31.4637 34.9708 31.3172 34.6048 31.1343C34.239 30.9512 34.6781 30.9146 34.2754 30.6219C33.2873 29.9265 32.7382 29.4505 33.1409 28.0964C33.1774 27.8402 33.5799 27.5473 34.0922 27.1448Z" fill="#EFEFEF"/>
<path opacity="0.4" d="M24.7573 18.7672C21.4633 20.0848 13.082 24.2573 10.7031 25.5383C12.6795 26.7826 13.5944 29.7837 13.8873 32.8214C13.9238 33.1143 13.9604 33.3705 13.9971 33.6632C14.0336 33.9195 14.0702 34.1024 14.1067 34.2123C14.1067 34.249 14.1067 34.3221 14.1434 34.3586C16.3028 28.4662 24.0251 22.2443 24.318 21.7685C24.4643 21.5489 24.1349 20.5973 24.6474 19.6825C25.3063 18.511 26.5874 17.9985 24.7573 18.7672Z" fill="black"/>
<path opacity="0.4" d="M32.5886 46.3987C34.2721 43.0316 34.3087 39.8108 34.2721 36.041C34.2721 34.4671 35.4066 32.2346 34.8212 32.8568C32.6251 35.3088 27.0987 39.9206 23.1094 40.1766C28.7091 39.9937 30.905 42.8119 32.5886 46.3987Z" fill="black"/>
<path d="M7.48438 28.6475C9.57051 27.147 20.3674 21.4011 22.966 20.5957C25.5644 19.7539 24.7592 18.7656 24.7592 18.7656C24.7592 18.7656 14.2186 23.3039 7.92352 27.2201" fill="black"/>
<path opacity="0.4" d="M38.2267 18.0726C37.3849 17.7432 36.7262 18.7315 36.9458 19.6831C37.1655 20.6347 39.1419 21.6959 39.0319 25.173C38.9588 28.0278 38.3365 29.1988 38.3365 29.1988L36.9458 27.4422C36.9458 27.4422 36.7262 23.4893 36.2504 22.9037C35.7748 22.3182 34.274 21.2568 33.6885 20.7078C33.1029 20.1587 34.3472 19.4269 34.274 18.4019C34.2009 17.4138 34.8963 15.4375 34.8963 15.4375L38.2267 18.0726Z" fill="black"/>
<path opacity="0.4" d="M43.3166 33.6641C43.2435 36.4089 43.8657 40.4716 44.1218 42.4115C44.378 44.3511 44.7073 44.4976 44.1218 45.3761C43.5362 46.2179 42.7677 47.6086 42.7677 47.6086L40.2422 47.3889C40.2422 47.3889 42.2552 44.827 42.3648 44.3511C42.4746 43.8755 41.3401 40.2522 41.3401 40.2522L43.3166 33.6641Z" fill="black"/>
<path opacity="0.4" d="M38.4453 8.04289C38.9578 9.17723 39.5798 9.68969 40.5679 10.0192C41.1535 10.2388 43.4592 10.5317 44.3744 9.50677C44.7769 9.03097 44.5206 7.75 44.5206 7.75L42.4345 9.43346L39.6163 8.92118L39.287 8.07936L38.4453 8.04289Z" fill="black"/>
<path d="M38.6677 10.5664C39.6193 11.1887 41.9983 11.7742 42.6571 11.884C43.3158 12.0303 44.3772 11.1887 44.8896 10.9691C45.4388 10.7128 46.3904 10.5664 47.4882 11.5547C47.598 11.6645 47.232 12.1403 47.232 12.1403C47.1953 12.1036 46.9758 12.1036 46.6829 11.9572C46.3902 11.8109 46.134 11.7009 45.6948 11.7376C43.8647 11.9572 43.572 12.5794 41.9617 12.2132C40.3513 11.847 39.9487 11.5545 38.375 11.6276" fill="#88CE02"/>
<path d="M38.6677 10.5664C39.6193 11.1887 41.9983 11.7742 42.6571 11.884C43.3158 12.0303 44.3772 11.1887 44.8896 10.9691C45.4388 10.7128 46.3904 10.5664 47.4882 11.5547C47.598 11.6645 47.232 12.1403 47.232 12.1403C47.1953 12.1036 46.9758 12.1036 46.6829 11.9572C46.3902 11.8109 46.134 11.7009 45.6948 11.7376C43.8647 11.9572 43.572 12.5794 41.9617 12.2132C40.3513 11.847 39.9487 11.5545 38.375 11.6276" stroke="black" stroke-width="1.586" stroke-linejoin="round"/>
<path d="M38.3384 10.6797C39.5462 11.1921 41.8886 11.7411 42.5473 11.8875C43.206 12.034 44.2674 11.3751 44.7799 11.0457C45.695 10.4601 46.866 10.9359 47.4152 11.5582C47.781 11.9607 47.9276 12.2169 47.9276 12.3267C47.9276 12.4729 47.4885 12.3267 47.4885 12.3267C47.2322 12.2169 46.9393 12.1804 46.72 12.0338C46.4271 11.8875 46.1342 11.668 45.6952 11.7044C43.8651 11.9242 43.4991 12.5462 41.9254 12.1802C40.3518 11.8142 39.9491 11.4849 38.2656 11.5945" fill="#88CE02"/>
<path d="M32.6663 44.8598C32.5932 44.7867 32.7394 44.7136 32.6663 44.7136C32.1907 44.7136 31.5318 44.3476 31.1656 43.8351C29.5919 41.566 27.286 40.0655 23.1137 40.1753C16.8552 40.3216 14.3663 37.7598 13.8907 32.8555C13.6345 30.1838 12.9025 27.5852 11.4019 26.1211L10.5234 26.6702C12.2069 28.1341 12.756 30.5131 13.122 33.7704C13.7076 38.6747 17.6603 40.944 22.2719 41.0171C27.0664 41.0902 28.7866 42.0785 30.5798 44.4942C31.1654 45.2627 31.8243 45.5189 32.3366 45.6287L32.6663 44.8598Z" fill="black"/>
<path opacity="0.4" d="M49.6453 21.3281C49.7551 21.8771 50.0478 22.9385 50.6334 23.4507C50.8898 23.707 50.9263 23.7801 50.7067 23.7801C50.487 23.7801 48.8766 23.707 48.8766 23.707L48.4375 22.9385L49.6453 21.3281Z" fill="black"/>
</g>
<defs>
<clipPath id="clip0_295_21">
<rect width="55.165" height="64" fill="white"/>
</clipPath>
</defs>
</svg>
