<svg width="64" height="64" viewBox="0 0 64 64" fill="none" xmlns="http://www.w3.org/2000/svg">
<g clip-path="url(#clip0_271_13)">
<path d="M11.3333 0H52.6667C58.9333 0 64 5.19658 64 11.6239V52.3761C64 58.8034 58.9333 64 52.6667 64H11.3333C5.06667 64 0 58.8034 0 52.3761V11.6239C0 5.19658 5.06667 0 11.3333 0Z" fill="#001E36"/>
<path d="M14.3984 44.5613V17.1213C14.3984 16.9346 14.4784 16.828 14.6651 16.828C15.1184 16.828 15.5451 16.828 16.1584 16.8013C16.7984 16.7746 17.4651 16.7746 18.1851 16.748C18.9051 16.7213 19.6784 16.7213 20.5051 16.6946C21.3318 16.668 22.1318 16.668 22.9318 16.668C25.1184 16.668 26.9318 16.9346 28.4251 17.4946C29.7584 17.948 30.9851 18.6946 31.9984 19.6813C32.8518 20.5346 33.5184 21.5746 33.9451 22.7213C34.3451 23.8413 34.5584 24.988 34.5584 26.188C34.5584 28.4813 34.0251 30.3746 32.9584 31.868C31.8918 33.3613 30.3984 34.4813 28.6651 35.1213C26.8518 35.788 24.8518 36.028 22.6651 36.028C22.0251 36.028 21.5984 36.028 21.3318 36.0013C21.0651 35.9746 20.6918 35.9746 20.1851 35.9746V44.5346C20.2118 44.7213 20.0784 44.8813 19.8918 44.908H14.7184C14.5051 44.908 14.3984 44.8013 14.3984 44.5613ZM20.2118 21.9746V30.9346C20.5851 30.9613 20.9318 30.988 21.2518 30.988H22.6651C23.7051 30.988 24.7451 30.828 25.7318 30.508C26.5851 30.268 27.3318 29.7613 27.9184 29.0946C28.4784 28.428 28.7451 27.5213 28.7451 26.348C28.7718 25.5213 28.5584 24.6946 28.1318 23.9746C27.6784 23.2813 27.0384 22.748 26.2651 22.4546C25.2784 22.0546 24.2118 21.8946 23.1184 21.9213C22.4251 21.9213 21.8118 21.9213 21.3051 21.948C20.7718 21.9213 20.3984 21.948 20.2118 21.9746ZM51.1984 29.308C50.3984 28.8813 49.5451 28.588 48.6384 28.4013C47.6518 28.188 46.6651 28.0546 45.6518 28.0546C45.1184 28.028 44.5584 28.108 44.0518 28.2413C43.7051 28.3213 43.4118 28.508 43.2251 28.7746C43.0918 28.988 43.0118 29.2546 43.0118 29.4946C43.0118 29.7346 43.1184 29.9746 43.2784 30.188C43.5184 30.4813 43.8384 30.7213 44.1851 30.908C44.7984 31.228 45.4384 31.5213 46.0784 31.788C47.5184 32.268 48.9051 32.9346 50.1851 33.7346C51.0651 34.2946 51.7851 35.0413 52.2918 35.948C52.7184 36.8013 52.9318 37.7346 52.9051 38.6946C52.9318 39.948 52.5584 41.2013 51.8651 42.2413C51.1184 43.308 50.0784 44.1346 48.8784 44.6146C47.5718 45.1746 45.9718 45.468 44.0518 45.468C42.8251 45.468 41.6251 45.3613 40.4251 45.1213C39.4918 44.9613 38.5584 44.668 37.7051 44.268C37.5184 44.1613 37.3851 43.9746 37.4118 43.7613V39.1213C37.4118 39.0413 37.4384 38.9346 37.5184 38.8813C37.5984 38.828 37.6784 38.8546 37.7584 38.908C38.7984 39.5213 39.8918 39.948 41.0651 40.2146C42.0784 40.4813 43.1451 40.6146 44.2118 40.6146C45.2251 40.6146 45.9451 40.4813 46.4251 40.2413C46.8518 40.0546 47.1451 39.6013 47.1451 39.1213C47.1451 38.748 46.9318 38.4013 46.5051 38.0546C46.0784 37.708 45.1984 37.308 43.8918 36.8013C42.5318 36.3213 41.2784 35.6813 40.1051 34.8813C39.2784 34.2946 38.5851 33.5213 38.0784 32.6146C37.6518 31.7613 37.4384 30.828 37.4651 29.8946C37.4651 28.748 37.7851 27.6546 38.3718 26.668C39.0384 25.6013 40.0251 24.748 41.1718 24.2146C42.4251 23.5746 43.9984 23.2813 45.8918 23.2813C46.9851 23.2813 48.1051 23.3613 49.1984 23.5213C49.9984 23.628 50.7718 23.8413 51.4918 24.1346C51.5984 24.1613 51.7051 24.268 51.7584 24.3746C51.7851 24.4813 51.8118 24.588 51.8118 24.6946V29.0413C51.8118 29.148 51.7584 29.2546 51.6784 29.308C51.4384 29.3613 51.3051 29.3613 51.1984 29.308Z" fill="#31A8FF"/>
</g>
<defs>
<clipPath id="clip0_271_13">
<rect width="64" height="64" fill="white"/>
</clipPath>
</defs>
</svg>
