<svg width="64" height="61" viewBox="0 0 64 61" fill="none" xmlns="http://www.w3.org/2000/svg">
<g clip-path="url(#clip0_274_6)">
<path d="M44.3452 42.4372C46.707 42.1927 48.4987 40.1567 48.4172 37.7132C48.336 35.2699 46.2997 33.3152 43.8565 33.3152H43.6937C41.1687 33.3967 39.2142 35.5142 39.2957 38.0389C39.3772 39.2607 39.8657 40.3194 40.5987 41.0524C37.8297 46.5094 33.5947 50.5002 27.2422 53.8394C22.9257 56.1199 18.4465 56.9344 13.9672 56.3644C10.3022 55.8757 7.45175 54.2469 5.65975 51.5589C3.05375 47.5682 2.8095 43.2514 5.0085 38.9349C6.556 35.8399 8.999 33.5594 10.5465 32.4192C10.2207 31.3604 9.732 29.5687 9.48775 28.2657C-2.3215 36.8174 -1.09975 48.3827 2.48375 53.8394C5.17125 57.9119 10.628 60.4367 16.6547 60.4367C18.2835 60.4367 19.9122 60.2737 21.5412 59.8667C31.966 57.8304 39.866 51.6404 44.3452 42.4372ZM58.6792 32.3379C52.4895 25.0892 43.368 21.0984 32.9432 21.0984H31.6402C30.9072 19.6324 29.3597 18.6549 27.6495 18.6549H27.4865C24.962 18.7364 23.0075 20.8539 23.0887 23.3789C23.1702 25.8222 25.2062 27.7769 27.6495 27.7769H27.8122C29.604 27.6954 31.1515 26.5552 31.803 25.0077H33.269C39.4587 25.0077 45.3225 26.7994 50.6165 30.3017C54.6885 32.9894 57.6205 36.4917 59.2492 40.7267C60.6337 44.1474 60.5522 47.4867 59.0862 50.3374C56.806 54.6539 52.9782 57.0159 47.9287 57.0159C44.671 57.0159 41.5762 56.0384 39.9472 55.3054C39.0515 56.1199 37.4225 57.4229 36.2822 58.2377C39.7845 59.8664 43.368 60.7624 46.7885 60.7624C54.607 60.7624 60.3895 56.4457 62.5885 52.1292C64.9502 47.4052 64.7872 39.2607 58.6792 32.3379ZM17.3062 43.8214C17.3877 46.2649 19.4237 48.2194 21.867 48.2194H22.03C24.5547 48.1382 26.5092 46.0204 26.4277 43.4957C26.3465 41.0522 24.3102 39.0977 21.867 39.0977H21.7042C21.5412 39.0977 21.2967 39.0977 21.1342 39.1789C17.795 33.6407 16.4105 27.6139 16.8992 21.0982C17.2247 16.2114 18.8537 11.9762 21.7042 8.47391C24.066 5.46041 28.6267 3.99441 31.7217 3.91316C40.3545 3.75016 44.0192 14.5009 44.2637 18.8177C45.3225 19.0619 47.1142 19.6322 48.336 20.0394C47.3585 6.84541 39.2142 0.00390625 31.396 0.00390625C24.066 0.00390625 17.3062 5.29791 14.6185 13.1167C10.8722 23.5417 13.3155 33.5594 17.8762 41.4597C17.4692 42.0297 17.2247 42.9254 17.3062 43.8214Z" fill="#764ABC"/>
</g>
<defs>
<clipPath id="clip0_274_6">
<rect width="64" height="61.0048" fill="white"/>
</clipPath>
</defs>
</svg>
