<svg width="64" height="64" viewBox="0 0 64 64" fill="none" xmlns="http://www.w3.org/2000/svg">
<g clip-path="url(#clip0_274_8)">
<path d="M0 32V0H64V64H0" fill="#007ACC"/>
<path d="M14.0312 32.1128V34.7208H22.3513V58.4008H28.2553V34.7208H36.5753V32.1608C36.5753 30.7208 36.5753 29.5528 36.5113 29.5208C36.5113 29.4728 31.4393 29.4568 25.2793 29.4568L14.0793 29.5048V32.1288L14.0312 32.1128ZM51.4233 29.4408C53.0553 29.8248 54.3033 30.5608 55.4233 31.7288C56.0153 32.3688 56.8953 33.4888 56.9593 33.7768C56.9593 33.8728 54.1913 35.7448 52.5113 36.7848C52.4473 36.8328 52.1913 36.5608 51.9353 36.1448C51.1033 34.9608 50.2553 34.4488 48.9273 34.3528C47.0073 34.2248 45.7273 35.2328 45.7273 36.9128C45.7273 37.4248 45.8233 37.7128 46.0153 38.1288C46.4473 39.0088 47.2473 39.5368 49.7273 40.6248C54.3033 42.5928 56.2872 43.8888 57.4872 45.7448C58.8472 47.8248 59.1513 51.0888 58.2393 53.5368C57.2153 56.2088 54.7193 58.0168 51.1513 58.6088C50.0313 58.8008 47.4713 58.7688 46.2713 58.5608C43.7113 58.0808 41.2633 56.8008 39.7593 55.1528C39.1673 54.5128 38.0313 52.8008 38.0953 52.6888L38.7033 52.3048L41.1033 50.9128L42.9113 49.8568L43.3273 50.4168C43.8553 51.2488 45.0393 52.3688 45.7273 52.7528C47.8073 53.8248 50.5913 53.6808 51.9673 52.4328C52.5593 51.8888 52.8153 51.3128 52.8153 50.5128C52.8153 49.7768 52.7033 49.4408 52.3353 48.8808C51.8233 48.1768 50.7993 47.6008 47.9193 46.3208C44.6073 44.9128 43.1993 44.0168 41.8873 42.6408C41.1353 41.8088 40.4473 40.5128 40.1273 39.4408C39.8873 38.5128 39.8073 36.2408 40.0313 35.3288C40.7193 32.1288 43.1353 29.8888 46.5913 29.2488C47.7113 29.0248 50.3513 29.1208 51.4553 29.4088L51.4233 29.4408Z" fill="white"/>
</g>
<defs>
<clipPath id="clip0_274_8">
<rect width="64" height="64" fill="white"/>
</clipPath>
</defs>
</svg>
