<svg width="64" height="64" viewBox="0 0 64 64" fill="none" xmlns="http://www.w3.org/2000/svg">
<g clip-path="url(#clip0_271_2)">
<path d="M4.54688 31.9996C4.54688 42.8666 10.8617 52.2564 20.0187 56.707L6.92351 20.8276C5.40028 24.2418 4.54688 28.0203 4.54688 31.9996Z" fill="#2D73A0"/>
<path d="M50.5317 30.6132C50.5317 27.2205 49.3131 24.8709 48.2673 23.0421C46.8764 20.7809 45.5724 18.8658 45.5724 16.6045C45.5724 14.0809 47.4859 11.7319 50.1815 11.7319C50.3033 11.7319 50.4185 11.7473 50.5379 11.7539C45.6529 7.27961 39.1461 4.54747 31.9993 4.54747C22.4086 4.54747 13.9713 9.46808 9.0625 16.9213C9.7069 16.9406 10.3144 16.9534 10.8291 16.9534C13.7004 16.9534 18.1457 16.6051 18.1457 16.6051C19.6256 16.5178 19.8 18.6915 18.3223 18.8664C18.3223 18.8664 16.8344 19.0414 15.1796 19.1281L25.1768 48.8633L31.1849 30.8453L26.9068 19.1276C25.4285 19.0407 24.0281 18.8658 24.0281 18.8658C22.5488 18.7791 22.7222 16.5172 24.2016 16.6045C24.2016 16.6045 28.735 16.9529 31.4325 16.9529C34.3034 16.9529 38.7484 16.6045 38.7484 16.6045C40.2294 16.5172 40.4033 18.6908 38.9245 18.8658C38.9245 18.8658 37.4345 19.0407 35.7827 19.1276L45.7034 48.6377L48.4407 39.4877C49.6283 35.6904 50.5317 32.9633 50.5317 30.6132Z" fill="#2D73A0"/>
<path d="M32.4787 34.4008L24.2422 58.3339C26.7014 59.0579 29.3021 59.4531 31.997 59.4531C35.1939 59.4531 38.2596 58.8996 41.1132 57.8967C41.0387 57.7795 40.9719 57.6546 40.9178 57.5188L32.4787 34.4008Z" fill="#2D73A0"/>
<path d="M56.0925 18.8266C56.2103 19.701 56.2772 20.6406 56.2772 21.6496C56.2772 24.4353 55.7569 27.5669 54.1898 31.4825L45.8047 55.7266C53.966 50.9673 59.4553 42.1255 59.4553 31.9972C59.4557 27.2252 58.2365 22.7371 56.0925 18.8266Z" fill="#2D73A0"/>
<path d="M32.0006 62.5323C15.1652 62.5323 1.46716 48.8344 1.46716 31.9978C1.46716 15.163 15.1642 1.46639 32.0006 1.46639C48.8358 1.46639 62.5324 15.1629 62.5324 31.9978C62.5324 48.8347 48.8353 62.5323 32.0006 62.5323ZM32.0006 -0.00163984C14.3556 -0.00163984 0 14.3536 0 31.9979C0 49.6448 14.3551 64 32.0006 64C49.6448 64 64.0028 49.6453 64.0028 31.9979C64.0022 14.3534 49.6448 -0.00163984 32.0006 -0.00163984Z" fill="#2D73A0"/>
</g>
<defs>
<clipPath id="clip0_271_2">
<rect width="64" height="64.0011" fill="white"/>
</clipPath>
</defs>
</svg>
